<svg xmlns="http://www.w3.org/2000/svg" width="703.863" height="800" viewBox="0 0 703.863 800"><g transform="translate(-584.533 -140)"><path fill="#d6d6e3" d="m878.145 912.641 18.2 2.351 4.539-55.8-18.321 7.1Z"/><path fill="#090814" d="M896.824 909.33s-.113-4.475 2.595-3.647 10.003 6.018 10.003 6.018 26.285 3.595 23.07 9.273-16.173 6.9-19.763 6.54-22.225-2.353-22.225-2.353-14.516 1.483-14.158-2.108.547-13.896.547-13.896 15.266 10.59 19.93.173m164.858-348.35v-21.835a29.259 29.259 0 1 1 58.518 0v21.835a3.935 3.935 0 0 1-3.93 3.93h-50.655a3.935 3.935 0 0 1-3.93-3.93Z"/><path fill="#fff" d="M1098.817 488.422 790.133 668.837a4.72 4.72 0 0 1-6.453-1.692l-198.5-339.634a4.72 4.72 0 0 1 1.692-6.453l308.681-180.415a4.72 4.72 0 0 1 6.453 1.692l198.503 339.636a4.72 4.72 0 0 1-1.692 6.452Z"/><path fill="#ed9da0" d="M862.122 540.186s14.972-6.788 20.429 1.944-4.558 28.891-4.558 28.891l-26.781-5.409Z"/><path fill="#3f3d56" d="M1098.817 488.422 790.133 668.837a4.72 4.72 0 0 1-6.453-1.692l-198.5-339.634a4.72 4.72 0 0 1 1.692-6.453l308.681-180.415a4.72 4.72 0 0 1 6.453 1.692l198.503 339.636a4.72 4.72 0 0 1-1.692 6.452Zm-511-165.735a2.833 2.833 0 0 0-1.015 3.872l198.5 339.635a2.833 2.833 0 0 0 3.872 1.015l308.691-180.416a2.833 2.833 0 0 0 1.015-3.872l-198.5-339.634a2.833 2.833 0 0 0-3.872-1.015Z"/><path fill="#f2f2f2" d="m790.241 356.51-76.56 44.747a4.72 4.72 0 0 1-6.453-1.692l-44.747-76.56a4.72 4.72 0 0 1 1.692-6.453l76.56-44.747a4.72 4.72 0 0 1 6.453 1.692l44.747 76.56a4.72 4.72 0 0 1-1.692 6.453m-125.113-38.334a2.833 2.833 0 0 0-1.015 3.872l44.747 76.56a2.833 2.833 0 0 0 3.871 1.015l76.56-44.747a2.833 2.833 0 0 0 1.015-3.872l-44.747-76.56a2.833 2.833 0 0 0-3.871-1.015Z"/><path fill="#6c63ff" d="m773.725 378.729-76.56 44.747a4.25 4.25 0 0 1-5.807-1.523l-44.747-76.56a4.25 4.25 0 0 1 1.523-5.807l76.56-44.747a4.25 4.25 0 0 1 5.807 1.523l44.747 76.56a4.25 4.25 0 0 1-1.523 5.807"/><path fill="#e6e6e6" d="M958.516 320.993 719.061 460.942a4.245 4.245 0 0 1-4.284-7.33l239.455-139.953a4.245 4.245 0 0 1 4.284 7.33Zm-43.07 59.043L733.819 486.19a4.245 4.245 0 1 1-4.284-7.33l181.627-106.155a4.245 4.245 0 1 1 4.284 7.33Zm-12.011-151.42L797.553 290.5a4.245 4.245 0 1 1-4.284-7.33l105.881-61.884a4.245 4.245 0 0 1 4.284 7.33Zm-11.667 40.692-79.457 46.44a4.245 4.245 0 0 1-4.284-7.33l79.457-46.44a4.245 4.245 0 1 1 4.284 7.33m96.263 102.178L748.576 511.439a4.245 4.245 0 0 1-4.284-7.33l239.454-139.953a4.245 4.245 0 0 1 4.284 7.33Zm-43.071 59.047L763.333 536.684a4.245 4.245 0 0 1-4.284-7.33l181.627-106.151a4.245 4.245 0 0 1 4.284 7.33m72.586-8.549L778.09 561.937a4.245 4.245 0 0 1-4.284-7.33l239.454-139.953a4.245 4.245 0 0 1 4.284 7.33Zm14.755 25.248L792.846 587.185a4.245 4.245 0 0 1-4.284-7.33l239.455-139.953a4.245 4.245 0 0 1 4.284 7.33"/><path fill="#6c63ff" d="M954.866 545.522a92.5 92.5 0 0 0 8.953-12.521c2.36-3.983 4.675-8.241 5.195-12.913a12.75 12.75 0 0 0-3.819-10.9 8.975 8.975 0 0 0-10.529-1.2 10.71 10.71 0 0 0-5.374 9.562 14.15 14.15 0 0 0 6.043 10.713c7.078 5.128 18.131 4.86 25.675.958 8.5-4.4 12.887-15.9 6.212-23.767-1.388-1.637-3.7.192-3.351 1.959a9.52 9.52 0 0 0 18.862-2.331l-3 1.754a22.91 22.91 0 0 0 22.792-2.445 21.3 21.3 0 0 0 4.265-4.122c1.469-1.916 3.936-3.154 5.934-4.535l14.4-9.949c2.118-1.463.1-4.951-2.031-3.475l-13.04 9.01c-2.173 1.5-4.36 2.985-6.52 4.505-1.544 1.087-2.494 2.842-3.9 4.133a18.87 18.87 0 0 1-19.924 3.37 2.037 2.037 0 0 0-3 1.754 5.51 5.51 0 1 1-10.944 1.3l-3.351 1.959c4.306 5.078 1.439 12.867-3.522 16.274-5.548 3.811-13.747 4.472-20 2.1a11.8 11.8 0 0 1-6.948-6.375 7.03 7.03 0 0 1 1.6-8.048 5.046 5.046 0 0 1 7.016-.075 9.03 9.03 0 0 1 2.386 8.145c-.645 4.033-2.875 7.752-4.949 11.2a86 86 0 0 1-8.009 11.153c-1.661 1.965 1.2 4.8 2.882 2.811Z"/><path fill="#ed9da0" d="M986.607 641.233a9.5 9.5 0 0 1 .952 1.147l44.59-1.091 5.2-9.505 15.372 5.976-7.574 17.723a7.2 7.2 0 0 1-7.479 4.316l-50.378-6.086a9.441 9.441 0 1 1-.684-12.479Zm145.357 270.797h-14.661l-6.975-56.552h21.638Zm-133.923.754-14.242-6.085 16.691-57.832 21.02 8.981Zm82.191-352.59c4.684-5.526 17.539-1.66 17.539-1.66l4.189 22.108h-22.928s-3.483-14.921 1.2-20.448"/><path fill="#ffb7b7" d="m1060.7 653.484-1.057 17.18 30.991 3.316 32.427 3.47-9.545-26.088Z"/><path fill="#e6e6e6" d="m1058.663 670.885-12.039-83.929 20.867-6.839 6.129-8.405 29.825 1.765 4.379 9.808 15.9 7.515-2.444 45.39 1.783 37.97Z"/><path fill="#e6e6e6" d="m1051.085 648.394-21.225-8.492.091-.378c.091-.381 9.125-38.132 10.324-44.2 1.25-6.32 5.815-8.068 6.009-8.139l.142-.052 8.4 2.557 3.689 28.987Z"/><path fill="#090814" d="m1009.752 901.767-28.254-5.8 45.159-124.609 15.455-42.5s9.8-34.078 14.231-47.266l2.673-17.695 63.27 7s17.671 25.952 12.3 68.252l2.428 158.99-28.254 1.449-23.663-160.344-41.536 87.9a535.5 535.5 0 0 1-33.809 74.623"/><path fill="#ed9da0" d="M1096.914 676.804a9.5 9.5 0 0 1 1.489.082l29.517-33.441-3.434-10.277 14.833-7.209 7.847 17.6s.52 6.351-1.921 8.419l-38.715 32.8a9.441 9.441 0 1 1-9.616-7.983Z"/><path fill="#e6e6e6" d="m1125.564 646.7-12.313-28.963 4.8-20.174 5.174-6.537a2.98 2.98 0 0 1 2.395.022c1.908.768 3.533 3.122 4.83 7l11.539 32.869Z"/><circle cx="21.452" cy="21.452" r="21.452" fill="#ed9da0" transform="translate(1063.477 521.498)"/><path fill="#090814" d="M1054.759 540.891a23.17 23.17 0 0 1 23.145-23.145h4.367a23.17 23.17 0 0 1 23.145 23.145v.437h-9.229l-3.148-8.814-.63 8.814h-4.77l-1.588-4.447-.318 4.447h-30.974Z"/><path fill="#090814" d="M1082.816 567.365a3.87 3.87 0 0 1-.308-4.111c4.628-8.8 11.107-25.067 2.507-35.1l-.618-.721h24.969v37.487l-22.682 4a4 4 0 0 1-.7.061 3.91 3.91 0 0 1-3.172-1.621Z"/><path fill="#d6d6e3" d="m794.195 899.245 14.789 7.679 17.239-47.946h-12.276Z"/><path fill="#e6e6e6" d="m849.645 566.046 6.119-12.092s22.8 5.712 24.869 18.924Z"/><path fill="#2f2e41" d="m824.395 704.307 6.188 67.341 2.345 25.524-35.187 88.588 17.761 9.371s36.664-62.066 49.289-86.169 8.955-19.725 8.955-19.725l2.921 121.269 25.054-3.93s4.986-60.807 3.338-109.4-10.655-95.161-10.655-95.161Z"/><path fill="#3f3d56" d="M855.987 726.26c-24.448 0-39.97-4.676-40.318-4.75l-.563-.12 12.734-59.039.573-54.458c0-23.078 15.189-40.092 17.3-41.662a9.93 9.93 0 0 1 5.28-6.49c5.066-2.3 11.258.46 11.518.578l18.582 6.967.087.258c.224.66 24.7 81.011 24.7 81.011s-1.481 70.205-2 72.505c-.002-.001-34.312 5.2-47.893 5.2"/><circle cx="25.115" cy="25.115" r="25.115" fill="#ed9da0" transform="translate(849.655 505.374)"/><path fill="#ed9da0" d="M984.526 654.059a10.778 10.778 0 0 1-16.183-3.355l-37.82 6.054 8.193-18.139 34.658-2.968a10.836 10.836 0 0 1 11.151 18.408Z"/><path fill="#e6e6e6" d="m940.664 637.587 13.589-1.333 3.766 18.956-17.1.3Z"/><path fill="#3f3d56" d="m951.804 661.816-66.554-5.926-33.605-53.445-.1-.472a18.4 18.4 0 0 1 34.348-12.32l19.727 38.48 39.813 6.018Z"/><path fill="#e6e6e6" d="M1287.193 927.409h-639.34a1.123 1.123 0 0 1 0-2.183h639.683a1 1 0 0 1 .86 1.092 1.29 1.29 0 0 1-1.203 1.091"/><path fill="#090814" d="M1134.853 924.262a5.2 5.2 0 0 0 2.155-3.655c.1-1.514-.649-3.139-2.224-4.829-.038-.486-.527-6.511-1.616-7.59.091-.322.646-2.461-.263-3.849a2.64 2.64 0 0 0-2.052-1.133h-.041l-.02.036c-.026.047-2.676 4.708-6.663 5.117-2.285.235-4.574-.956-6.8-3.54-.08-.191-.709-3.338-1.116-5.421l-.016-.083-21.721 11.56-12.7 3.557a3.758 3.758 0 0 0-.616 6.979l6.154 3a19.06 19.06 0 0 0 8.292 1.913h33.383a9.25 9.25 0 0 0 5.86-2.054Zm-128.788-.185a5.5 5.5 0 0 0 2.273-3.855c.1-1.6-.685-3.311-2.346-5.093-.04-.513-.555-6.868-1.7-8.006a12.9 12.9 0 0 0-1.592-4.861c-.452-.69-3.738 4.605-7.942 5.037-2.411.247-4.824-1.008-7.173-3.733-.085-.2-.748-3.521-1.177-5.718l-.017-.088-22.913 12.193-13.39 3.751a3.964 3.964 0 0 0-.649 7.361l6.491 3.159a20.1 20.1 0 0 0 8.746 2.018h35.212a9.76 9.76 0 0 0 6.181-2.167Zm-198.022-24.384c4.311 1.502 2.184-4.971 4.582-3.291s9.13 10.526 9.13 10.526 24.692 11.944 19.712 16.501-18.105 1.603-21.52.104-21.095-9.426-21.095-9.426-14.747-3.184-13.248-6.598 11-15.707 11-15.707 7.128 6.389 11.439 7.89m59.046-351.032c-6.023 1.627-10.576 4.1-15.276 0s-9.728-14.554-11.422-20.558c-1.241-4.4-1.829-9.279.129-13.407s7.228-6.914 11.293-4.828c-2.508-2.922-1.255-7.755 1.674-10.255s6.951-3.216 10.782-3.608c5.56-.569 11.3-.632 16.592 1.169s10.1 5.739 11.753 11.076a8.43 8.43 0 0 0 10.055-2.27 7.64 7.64 0 0 1-4.208 8.281l8.106-2.628c1.394 2.951-1.049 6.6-4.172 7.548s-6.5-.088-9.46-1.453-5.837-3.091-9.056-3.623-7 .5-8.491 3.406c-.78 1.521-.821 3.3-1.274 4.95s-1.6 3.357-3.3 3.492c-1.077.085-2.131-.488-3.2-.371a3.45 3.45 0 0 0-2.7 2.642 10.1 10.1 0 0 0-.01 3.988l2.059 15.738"/></g></svg>