<svg xmlns="http://www.w3.org/2000/svg" width="800" height="583.833" viewBox="0 0 800 583.833"><g transform="translate(-560 -244.347)"><path fill="#e6e6e6" d="M1237.981 713.945s-20.693-7.01-30.648 11.219a33.25 33.25 0 0 0 .443 32.016c6.515 11.819 20.015 27.169 45.607 25.8 21.657-1.16 28.8-17.682 30.778-33.058a33.958 33.958 0 0 0-45.1-36.355Z"/><path fill="#d6d6e3" d="M1231.603 690.771s9.668 26.188 8.863 33.039l7.665-.8s-12.9-23-9.668-32.234Z"/><path fill="#e6e6e6" d="M1275.054 686.882s-17.349-8.871-25.128-1.54-8.958 26.067-8.958 26.067 28.31 3.889 34.086-24.527"/><path fill="#d6d6e3" d="m1241.514 711.521-1.069-.224a21 21 0 0 1 1.205-3.544 32.3 32.3 0 0 1 4.878-7.916 34.8 34.8 0 0 1 10.493-8.433 47.7 47.7 0 0 1 17.983-5.064l.1 1.088a46.7 46.7 0 0 0-17.537 4.923 33.8 33.8 0 0 0-10.164 8.142 31.2 31.2 0 0 0-4.728 7.641 20.4 20.4 0 0 0-1.161 3.387"/><path fill="#090814" d="M837.516 700.258s43.248 93.143 38.258 108.154-282.764 0-282.764 0 51.562-51.562 41.581-108.154Z"/><path fill="#ed9da0" d="M797.674 429.264s-1.821 19.421-2.158 32.124 7.4 9.1 9.125 20.039-5.844 19.075-2.223 23.728c11.073 14.232-44.269 22.122-48.964 22.122s-55.33-17.341-64.818-22.134-17.341-39.525-17.341-39.525 47.428 9.488 61.66-45.83Z"/><path fill="#6c63ff" d="M761.016 512.318s-71.512 12.322-88.139-47.553l-47.953 29.987a35.18 35.18 0 0 0-13.435 24.263l-5.212 51.51s-5.825 19.129.834 30.765c0 0 69.062-17.461 70.691 2.489l-48.213 134.724s74.848 1.668 94.8-11.636c0 0 81.493 16.627 101.456-1.668s39.913-16.627 23.286-58.208c0 0 33.267-33.267 18.243-79.838s-.834.834-.834.834 32.433-15.806 30.765-45.737l-3.323-29.97s-.182-.99-.638-2.776c-10.14-39.458-37.385-61.245-75.685-47.354-11.193 4.052-22.634-.586-22.634-.586s12.549 54.076-34.009 50.754"/><path fill="#ed9da0" d="M607.157 568.857s3.323 118.083 6.659 133.055 51.562 59.876 76.5 61.543c0 0 26.608 63.2 56.553 53.217s33.267-63.2 18.243-69.857l-99.788-63.2V557.221Z"/><path fill="#6c63ff" d="M678.666 571.359s-38.337 31.833-71.63 29.657c0 0-3.2-50.454 6.777-52.943s53.22 0 64.853 23.286"/><circle cx="76.503" cy="76.503" r="76.503" fill="#ed9da0" transform="translate(696.145 309.406)"/><rect width="800" height="49.946" fill="#f2f2f2" rx="24" transform="translate(560 778.233)"/><rect width="153.018" height="21.618" fill="#090814" rx="6.5" transform="translate(711.154 761.45)"/><rect width="360.257" height="258.097" fill="#090814" rx="26.84" transform="translate(816.068 525.244)"/><circle cx="11.636" cy="11.636" r="11.636" fill="#6c63ff" transform="translate(1001.387 640.877)"/><path fill="#090814" d="M689.702 366.216s5.197 65.996-15.402 80.508-19.28 28.964-19.28 28.964-45.96 5.402-42.342-46.969l2.968 41.08s-40.004-11.103-18.263-59.548 36.472-45.636 31.096-62.82 9.97-96.133 58.56-90.999 37.511 28.852 37.511 28.852l-34.853 80.937Z"/><path fill="#090814" d="M825.924 305.758s-51.446-51.727-102.746-20.736-68.31 102.83-7.63 158.981l.02-31.1s-11.773-28.164 14.83-20.833 27.295-18.41 27.295-18.41 62.91-14.831 66.598-32.925l14.98 38.08s50.103-27.62-13.346-73.058Z"/><path fill="#6c63ff" d="M736.346 287.6s-5.732-26.296-22.776-10.55-9.387 30.887-9.387 30.887Z"/></g></svg>